<svg width="10" height="12" viewBox="0 0 10 12" fill="none" xmlns="http://www.w3.org/2000/svg">
<path d="M4.92308 12C5.6 12 6.15385 11.4462 6.15385 10.7692H3.69231C3.69231 11.0957 3.82198 11.4087 4.05279 11.6395C4.28361 11.8703 4.59666 12 4.92308 12ZM8.61539 8.30769V5.23077C8.61539 3.34154 7.60615 1.76 5.84615 1.34154V0.923077C5.84615 0.412308 5.43385 0 4.92308 0C4.41231 0 4 0.412308 4 0.923077V1.34154C2.23385 1.76 1.23077 3.33538 1.23077 5.23077V8.30769L0 9.53846V10.1538H9.84615V9.53846L8.61539 8.30769Z" fill="#204C9E"/>
</svg>
