<svg width="11" height="12" viewBox="0 0 11 12" fill="none" xmlns="http://www.w3.org/2000/svg">
<path d="M9.42857 0H0.857146C0.629887 0.000226919 0.412001 0.0906056 0.251305 0.251302C0.0906087 0.411998 0.000229858 0.629884 2.93906e-06 0.857143V6.42857C-0.000952141 7.28329 0.230883 8.12214 0.670622 8.85506C1.11036 9.58798 1.7414 10.1873 2.496 10.5887L5.14286 12L7.78972 10.5887C8.54432 10.1873 9.17536 9.58798 9.6151 8.85506C10.0548 8.12214 10.2867 7.28329 10.2857 6.42857V0.857143C10.2855 0.629884 10.1951 0.411998 10.0344 0.251302C9.87372 0.0906056 9.65583 0.000226919 9.42857 0ZM8.14286 6.85714H2.14286V6H8.14286V6.85714ZM8.14286 4.28571H2.14286V3.42857H8.14286V4.28571Z" fill="#204C9E"/>
</svg>
