<svg width="105" height="91" viewBox="0 0 105 91" fill="none" xmlns="http://www.w3.org/2000/svg">
<path d="M33 62C49.53 62 63 48.56 63 32C63 15.47 49.53 2 33 2C16.44 2 3 15.47 3 32C3 48.2793 15.9883 61.5435 32.1607 61.9885L33 62Z" fill="url(#paint0_linear_2_127)"/>
<g opacity="0.5" filter="url(#filter0_f_2_127)">
<path d="M32.8018 48C41.6178 48 48.8018 40.832 48.8018 32C48.8018 23.184 41.6178 16 32.8018 16C23.9698 16 16.8018 23.184 16.8018 32C16.8018 40.6823 23.7288 47.7565 32.3541 47.9939L32.8018 48Z" fill="#2BA22C"/>
</g>
<g filter="url(#filter1_b_2_127)">
<path d="M62.8333 89.6667C85.3325 89.6667 103.667 71.3733 103.667 48.8333C103.667 26.3342 85.3325 8 62.8333 8C40.2933 8 22 26.3342 22 48.8333C22 70.9913 39.6785 89.0453 61.691 89.651L62.8333 89.6667Z" fill="#72DC60" fill-opacity="0.35"/>
<path d="M62.8265 90.1667H62.8333C85.6083 90.1667 104.167 71.6498 104.167 48.8333C104.167 26.058 85.6086 7.5 62.8333 7.5C40.0169 7.5 21.5 26.0583 21.5 48.8333C21.5 71.2629 39.3948 89.5377 61.6772 90.1508L61.6841 90.1509L62.8265 90.1667Z" stroke="url(#paint1_linear_2_127)" stroke-linecap="round" stroke-linejoin="round"/>
</g>
<g filter="url(#filter2_bd_2_127)">
<path d="M57.0746 64.9999C55.9136 65.0058 54.7526 64.5867 53.8577 63.7247L42.3447 52.6257C40.567 50.9018 40.5488 48.1034 42.3084 46.3677C44.068 44.6261 46.9402 44.6084 48.724 46.3264L57.0081 54.3082L77.2344 34.3181C79 32.5765 81.8722 32.5588 83.65 34.2768C85.4338 36.0007 85.4519 38.805 83.6923 40.5348L60.2733 63.6834C59.3905 64.5572 58.2355 64.994 57.0746 64.9999Z" fill="url(#paint2_linear_2_127)"/>
<path d="M42.3787 46.4389L42.3788 46.4388C44.0997 44.7354 46.9099 44.718 48.6547 46.3984L56.9387 54.3802L57.0089 54.448L57.0784 54.3794L77.3046 34.3893C79.0318 32.6857 81.8419 32.6686 83.5805 34.3487C85.3242 36.0338 85.3414 38.7734 83.6222 40.4635L83.622 40.4636L60.203 63.6123L60.2029 63.6123C59.3397 64.4667 58.2103 64.8942 57.0741 64.8999C55.9375 64.9057 54.8021 64.4954 53.9271 63.6527L42.4143 52.5539C40.6766 50.8688 40.6592 48.1349 42.3787 46.4389Z" stroke="url(#paint3_linear_2_127)" stroke-opacity="0.5" stroke-width="0.2"/>
</g>
<defs>
<filter id="filter0_f_2_127" x="0.801758" y="0" width="64" height="64" filterUnits="userSpaceOnUse" color-interpolation-filters="sRGB">
<feFlood flood-opacity="0" result="BackgroundImageFix"/>
<feBlend mode="normal" in="SourceGraphic" in2="BackgroundImageFix" result="shape"/>
<feGaussianBlur stdDeviation="8" result="effect1_foregroundBlur_2_127"/>
</filter>
<filter id="filter1_b_2_127" x="-3" y="-17" width="131.667" height="131.667" filterUnits="userSpaceOnUse" color-interpolation-filters="sRGB">
<feFlood flood-opacity="0" result="BackgroundImageFix"/>
<feGaussianBlur in="BackgroundImageFix" stdDeviation="12"/>
<feComposite in2="SourceAlpha" operator="in" result="effect1_backgroundBlur_2_127"/>
<feBlend mode="normal" in="SourceGraphic" in2="effect1_backgroundBlur_2_127" result="shape"/>
</filter>
<filter id="filter2_bd_2_127" x="26" y="18" width="74" height="62" filterUnits="userSpaceOnUse" color-interpolation-filters="sRGB">
<feFlood flood-opacity="0" result="BackgroundImageFix"/>
<feGaussianBlur in="BackgroundImageFix" stdDeviation="7.5"/>
<feComposite in2="SourceAlpha" operator="in" result="effect1_backgroundBlur_2_127"/>
<feColorMatrix in="SourceAlpha" type="matrix" values="0 0 0 0 0 0 0 0 0 0 0 0 0 0 0 0 0 0 127 0" result="hardAlpha"/>
<feOffset dx="5" dy="5"/>
<feGaussianBlur stdDeviation="5"/>
<feColorMatrix type="matrix" values="0 0 0 0 0.454902 0 0 0 0 0.870588 0 0 0 0 0.376471 0 0 0 0.5 0"/>
<feBlend mode="normal" in2="effect1_backgroundBlur_2_127" result="effect2_dropShadow_2_127"/>
<feBlend mode="normal" in="SourceGraphic" in2="effect2_dropShadow_2_127" result="shape"/>
</filter>
<linearGradient id="paint0_linear_2_127" x1="63" y1="2" x2="20.6945" y2="51.4784" gradientUnits="userSpaceOnUse">
<stop stop-color="#9BF763"/>
<stop offset="1" stop-color="#26AB5B"/>
</linearGradient>
<linearGradient id="paint1_linear_2_127" x1="35" y1="17.5143" x2="87.0947" y2="82.0347" gradientUnits="userSpaceOnUse">
<stop stop-color="white" stop-opacity="0.25"/>
<stop offset="1" stop-color="white" stop-opacity="0"/>
</linearGradient>
<linearGradient id="paint2_linear_2_127" x1="81.8804" y1="38.7786" x2="32.9149" y2="40.9737" gradientUnits="userSpaceOnUse">
<stop stop-color="white"/>
<stop offset="1" stop-color="white" stop-opacity="0.2"/>
</linearGradient>
<linearGradient id="paint3_linear_2_127" x1="45.7398" y1="43.7345" x2="83.1008" y2="44.018" gradientUnits="userSpaceOnUse">
<stop stop-color="white"/>
<stop offset="1" stop-color="white" stop-opacity="0"/>
</linearGradient>
</defs>
</svg>
