<svg width="26" height="26" viewBox="0 0 26 26" fill="none" xmlns="http://www.w3.org/2000/svg">
<circle cx="13" cy="13" r="13" fill="#F5F5F5"/>
<path d="M17.7734 14.5437L15.3918 13.5281C15.2689 13.473 15.134 13.4502 14.9998 13.4617C14.8657 13.4733 14.7367 13.5189 14.625 13.5941L13.3504 14.4422C12.5736 14.0649 11.9446 13.4395 11.5629 12.6648L12.4059 11.375C12.4806 11.2632 12.5263 11.1345 12.5387 11.0006C12.5511 10.8667 12.5299 10.7318 12.477 10.6082L11.4562 8.22655C11.385 8.06573 11.2644 7.93179 11.1119 7.84413C10.9595 7.75647 10.783 7.71967 10.6082 7.73905C9.92245 7.82889 9.29265 8.16469 8.8359 8.68402C8.37915 9.20335 8.12652 9.87088 8.125 10.5625C8.125 14.5945 11.4055 17.875 15.4375 17.875C16.1291 17.8735 16.7966 17.6208 17.316 17.1641C17.8353 16.7073 18.1711 16.0775 18.2609 15.3918C18.2803 15.217 18.2435 15.0405 18.1559 14.888C18.0682 14.7356 17.9343 14.615 17.7734 14.5437Z" fill="#4CAF50"/>
</svg>
