<svg width="107" height="95" viewBox="0 0 107 95" fill="none" xmlns="http://www.w3.org/2000/svg">
<path d="M40.8463 6.44422L16.1505 16.1539C6.49439 19.9505 2.66541 29.2831 6.62993 39.3665L15.7797 62.6381C19.733 72.693 28.8928 76.9188 38.5489 73.1223L63.2447 63.4126C72.9009 59.6161 76.7014 50.2946 72.748 40.2397L63.5983 16.9681C59.6338 6.8847 50.5025 2.64769 40.8463 6.44422" fill="#FFD3C6"/>
<g filter="url(#filter0_b_2_540)">
<path d="M82.0467 33.2153L81.6383 32.318C80.5358 29.9931 79.27 27.3011 78.4942 25.7511C76.6158 22.0802 73.39 20.0408 69.4292 20H50.1967C46.2358 20.0408 43.0508 22.0802 41.1725 25.7511C40.3558 27.3826 38.9675 30.3194 37.8242 32.7259L37.5792 33.2153C37.4567 33.5416 37.13 33.7048 36.8033 33.7048C26.9625 33.7048 19 41.6992 19 51.4883V75.7164C19 85.5056 26.9625 93.5 36.8033 93.5H82.8633C92.6633 93.5 100.667 85.5056 100.667 75.7164V51.4883C100.667 41.6992 92.6633 33.7048 82.8633 33.7048C82.4958 33.7048 82.21 33.5008 82.0467 33.2153Z" fill="#FF9878"/>
<path d="M82.0934 32.1109L82.0935 32.1109L82.0901 32.1037C81.9021 31.7072 81.7091 31.2997 81.5145 30.8886C80.5702 28.894 79.5871 26.8176 78.9413 25.5273L78.9393 25.5234C76.9802 21.6946 73.5894 19.5428 69.4343 19.5V19.5H69.4292L50.1967 19.5L50.1915 19.5C46.0341 19.5428 42.6854 21.6967 40.7274 25.5233L40.7254 25.5273C40.0067 26.9631 38.8483 29.403 37.8043 31.6021C37.6584 31.9095 37.5147 32.2121 37.3748 32.5066L37.1321 32.9915C37.1242 33.0072 37.1172 33.0232 37.1111 33.0396C37.0811 33.1195 36.9825 33.2048 36.8033 33.2048C26.6861 33.2048 18.5 41.4233 18.5 51.4883V75.7164C18.5 85.7815 26.6861 94 36.8033 94H82.8633C92.939 94 101.167 85.7822 101.167 75.7164V51.4883C101.167 41.4226 92.939 33.2048 82.8633 33.2048C82.708 33.2048 82.5791 33.1277 82.4908 32.9841L82.0934 32.1109Z" stroke="url(#paint0_linear_2_540)" stroke-linecap="round" stroke-linejoin="round"/>
</g>
<g filter="url(#filter1_bd_2_540)">
<mask id="path-4-inside-1_2_540" fill="white">
<path fill-rule="evenodd" clip-rule="evenodd" d="M79.0657 48.8782C79.0657 50.9176 80.699 52.5491 82.7407 52.5491C84.7824 52.5491 86.4565 50.9176 86.4565 48.8782C86.4565 46.8388 84.7824 45.1665 82.7407 45.1665C80.699 45.1665 79.0657 46.8388 79.0657 48.8782ZM71.1442 73.5142C68.245 76.4101 64.2433 78.2048 59.8333 78.2048C55.5458 78.2048 51.5442 76.5325 48.4817 73.5142C45.46 70.4551 43.7858 66.4578 43.7858 62.1751C43.745 57.9332 45.4192 53.9359 48.4408 50.8768C51.5033 47.8177 55.5458 46.1454 59.8333 46.1454C64.1208 46.1454 68.1633 47.8177 71.185 50.836C74.2067 53.8951 75.8808 57.9332 75.8808 62.1751C75.84 66.621 74.0433 70.6182 71.1442 73.5142ZM59.8333 52.2635C57.1791 52.2635 54.6883 53.2832 52.7691 55.2002C50.8908 57.0765 49.87 59.5645 49.9108 62.1342V62.175C49.9108 64.8262 50.9316 67.3142 52.81 69.1905C54.6883 71.0667 57.1791 72.0864 59.8333 72.0864C65.305 72.0864 69.715 67.6405 69.7558 62.175C69.7558 59.5237 68.735 57.0357 66.8566 55.1594C64.9783 53.2832 62.4875 52.2635 59.8333 52.2635Z"/>
</mask>
<path fill-rule="evenodd" clip-rule="evenodd" d="M79.0657 48.8782C79.0657 50.9176 80.699 52.5491 82.7407 52.5491C84.7824 52.5491 86.4565 50.9176 86.4565 48.8782C86.4565 46.8388 84.7824 45.1665 82.7407 45.1665C80.699 45.1665 79.0657 46.8388 79.0657 48.8782ZM71.1442 73.5142C68.245 76.4101 64.2433 78.2048 59.8333 78.2048C55.5458 78.2048 51.5442 76.5325 48.4817 73.5142C45.46 70.4551 43.7858 66.4578 43.7858 62.1751C43.745 57.9332 45.4192 53.9359 48.4408 50.8768C51.5033 47.8177 55.5458 46.1454 59.8333 46.1454C64.1208 46.1454 68.1633 47.8177 71.185 50.836C74.2067 53.8951 75.8808 57.9332 75.8808 62.1751C75.84 66.621 74.0433 70.6182 71.1442 73.5142ZM59.8333 52.2635C57.1791 52.2635 54.6883 53.2832 52.7691 55.2002C50.8908 57.0765 49.87 59.5645 49.9108 62.1342V62.175C49.9108 64.8262 50.9316 67.3142 52.81 69.1905C54.6883 71.0667 57.1791 72.0864 59.8333 72.0864C65.305 72.0864 69.715 67.6405 69.7558 62.175C69.7558 59.5237 68.735 57.0357 66.8566 55.1594C64.9783 53.2832 62.4875 52.2635 59.8333 52.2635Z" fill="url(#paint1_linear_2_540)"/>
<path d="M71.1442 73.5142L71.2855 73.6557L71.1442 73.5142ZM48.4817 73.5142L48.3394 73.6547L48.3413 73.6566L48.4817 73.5142ZM43.7858 62.1751H43.9858L43.9858 62.1732L43.7858 62.1751ZM48.4408 50.8768L48.2995 50.7353L48.2985 50.7363L48.4408 50.8768ZM71.185 50.836L71.3273 50.6955L71.3263 50.6945L71.185 50.836ZM75.8808 62.1751L76.0808 62.1769V62.1751H75.8808ZM52.7691 55.2002L52.9105 55.3417L52.7691 55.2002ZM49.9108 62.1342H50.1108L50.1108 62.131L49.9108 62.1342ZM52.81 69.1905L52.9513 69.049L52.81 69.1905ZM69.7558 62.175L69.9558 62.1764V62.175H69.7558ZM66.8566 55.1594L66.7153 55.3009L66.8566 55.1594ZM82.7407 52.3491C80.8093 52.3491 79.2657 50.8069 79.2657 48.8782H78.8657C78.8657 51.0282 80.5888 52.7491 82.7407 52.7491V52.3491ZM86.2565 48.8782C86.2565 50.804 84.675 52.3491 82.7407 52.3491V52.7491C84.8897 52.7491 86.6565 51.0311 86.6565 48.8782H86.2565ZM82.7407 45.3665C84.6721 45.3665 86.2565 46.9494 86.2565 48.8782H86.6565C86.6565 46.7281 84.8926 44.9665 82.7407 44.9665V45.3665ZM79.2657 48.8782C79.2657 46.9465 80.8121 45.3665 82.7407 45.3665V44.9665C80.5859 44.9665 78.8657 46.731 78.8657 48.8782H79.2657ZM59.8333 78.4048C64.2987 78.4048 68.3505 76.5874 71.2855 73.6557L71.0028 73.3727C68.1395 76.2329 64.188 78.0048 59.8333 78.0048V78.4048ZM48.3413 73.6566C51.4404 76.711 55.4922 78.4048 59.8333 78.4048V78.0048C55.5995 78.0048 51.6479 76.3539 48.622 73.3717L48.3413 73.6566ZM43.5858 62.1751C43.5858 66.5116 45.2816 70.559 48.3394 73.6547L48.6239 73.3736C45.6384 70.3511 43.9858 66.4041 43.9858 62.1751H43.5858ZM48.2985 50.7363C45.241 53.8317 43.5445 57.8796 43.5858 62.177L43.9858 62.1732C43.9455 57.9867 45.5973 54.0401 48.5831 51.0174L48.2985 50.7363ZM59.8333 45.9454C55.4926 45.9454 51.3993 47.6389 48.2995 50.7353L48.5822 51.0183C51.6073 47.9965 55.5991 46.3454 59.8333 46.3454V45.9454ZM71.3263 50.6945C68.2671 47.6387 64.1737 45.9454 59.8333 45.9454V46.3454C64.068 46.3454 68.0596 47.9968 71.0436 50.9775L71.3263 50.6945ZM76.0808 62.1751C76.0808 57.8796 74.3853 53.7914 71.3273 50.6955L71.0427 50.9766C74.028 53.9989 75.6808 57.9867 75.6808 62.1751H76.0808ZM71.2855 73.6557C74.2207 70.7237 76.0395 66.6768 76.0808 62.1769L75.6808 62.1733C75.6405 66.5652 73.8659 70.5127 71.0028 73.3727L71.2855 73.6557ZM52.9105 55.3417C54.7922 53.4621 57.2322 52.4635 59.8333 52.4635V52.0635C57.1261 52.0635 54.5844 53.1042 52.6278 55.0587L52.9105 55.3417ZM50.1108 62.131C50.0708 59.6171 51.0693 57.1808 52.9105 55.3417L52.6278 55.0587C50.7122 56.9721 49.6691 59.5119 49.7108 62.1373L50.1108 62.131ZM50.1108 62.175V62.1342H49.7108V62.175H50.1108ZM52.9513 69.049C51.1109 67.2106 50.1108 64.7736 50.1108 62.175H49.7108C49.7108 64.8787 50.7524 67.4179 52.6686 69.332L52.9513 69.049ZM59.8333 71.8864C57.2316 71.8864 54.7917 70.8874 52.9513 69.049L52.6686 69.332C54.5849 71.2461 57.1267 72.2864 59.8333 72.2864V71.8864ZM69.5558 62.1735C69.5158 67.5309 65.1934 71.8864 59.8333 71.8864V72.2864C65.4166 72.2864 69.9141 67.7502 69.9558 62.1764L69.5558 62.1735ZM66.7153 55.3009C68.5557 57.1393 69.5558 59.5763 69.5558 62.175H69.9558C69.9558 59.4712 68.9142 56.932 66.998 55.0179L66.7153 55.3009ZM59.8333 52.4635C62.435 52.4635 64.8749 53.4625 66.7153 55.3009L66.998 55.0179C65.0817 53.1038 62.5399 52.0635 59.8333 52.0635V52.4635Z" fill="url(#paint2_linear_2_540)" fill-opacity="0.5" mask="url(#path-4-inside-1_2_540)"/>
</g>
<defs>
<filter id="filter0_b_2_540" x="3" y="3.99995" width="113.667" height="105.5" filterUnits="userSpaceOnUse" color-interpolation-filters="sRGB">
<feFlood flood-opacity="0" result="BackgroundImageFix"/>
<feGaussianBlur in="BackgroundImageFix" stdDeviation="7.5"/>
<feComposite in2="SourceAlpha" operator="in" result="effect1_backgroundBlur_2_540"/>
<feBlend mode="normal" in="SourceGraphic" in2="effect1_backgroundBlur_2_540" result="shape"/>
</filter>
<filter id="filter1_bd_2_540" x="28.7851" y="30.1665" width="72.6714" height="63.0383" filterUnits="userSpaceOnUse" color-interpolation-filters="sRGB">
<feFlood flood-opacity="0" result="BackgroundImageFix"/>
<feGaussianBlur in="BackgroundImageFix" stdDeviation="7.5"/>
<feComposite in2="SourceAlpha" operator="in" result="effect1_backgroundBlur_2_540"/>
<feColorMatrix in="SourceAlpha" type="matrix" values="0 0 0 0 0 0 0 0 0 0 0 0 0 0 0 0 0 0 127 0" result="hardAlpha"/>
<feOffset dx="5" dy="5"/>
<feGaussianBlur stdDeviation="5"/>
<feColorMatrix type="matrix" values="0 0 0 0 1 0 0 0 0 0.447059 0 0 0 0 0.368627 0 0 0 0.5 0"/>
<feBlend mode="normal" in2="effect1_backgroundBlur_2_540" result="effect2_dropShadow_2_540"/>
<feBlend mode="normal" in="SourceGraphic" in2="effect2_dropShadow_2_540" result="shape"/>
</filter>
<linearGradient id="paint0_linear_2_540" x1="32" y1="28.5628" x2="97.0301" y2="97.1121" gradientUnits="userSpaceOnUse">
<stop stop-color="white" stop-opacity="0.25"/>
<stop offset="1" stop-color="white" stop-opacity="0.15"/>
</linearGradient>
<linearGradient id="paint1_linear_2_540" x1="83.4312" y1="51.1325" x2="35.9329" y2="53.1327" gradientUnits="userSpaceOnUse">
<stop stop-color="white"/>
<stop offset="1" stop-color="white" stop-opacity="0.2"/>
</linearGradient>
<linearGradient id="paint2_linear_2_540" x1="84.6282" y1="62.3844" x2="43.1901" y2="64.6141" gradientUnits="userSpaceOnUse">
<stop stop-color="white"/>
<stop offset="1" stop-color="white" stop-opacity="0"/>
</linearGradient>
</defs>
</svg>
