<svg width="110" height="115" viewBox="0 0 110 115" fill="none" xmlns="http://www.w3.org/2000/svg">
<path d="M59.661 13.9489L27.4732 22.5736C15.7978 25.702 10.8318 34.3597 13.9705 46.0734L24.6008 85.7466C27.791 97.6523 36.3794 102.513 48.0547 99.3851L80.2426 90.7604C92.1061 87.5815 96.9213 79.1289 93.7312 67.2231L83.1008 27.55C79.9621 15.8362 71.5246 10.77 59.661 13.9489Z" fill="url(#paint0_linear_2_378)"/>
<g filter="url(#filter0_f_2_378)">
<rect x="37.6348" y="85.5449" width="51.3486" height="43.4826" rx="14" transform="rotate(-105 37.6348 85.5449)" fill="#8237FF" fill-opacity="0.5"/>
</g>
<g filter="url(#filter1_b_2_378)">
<path d="M81.1601 34.4785H47.8367C35.7495 34.4785 28.7119 41.5559 28.7119 53.6829V94.7555C28.7119 107.081 35.7495 114 47.8367 114H81.1601C93.4421 114 100.281 107.081 100.281 94.7555V53.6829C100.281 41.5559 93.4421 34.4785 81.1601 34.4785Z" fill="#BA90FF"/>
<path d="M81.1601 33.9785H47.8367C41.6959 33.9785 36.774 35.7782 33.3873 39.1803C30.0009 42.5821 28.2119 47.5234 28.2119 53.6829V94.7555C28.2119 101.012 29.9998 105.965 33.3881 109.353C36.7762 112.741 41.699 114.5 47.8367 114.5H81.1601C87.3934 114.5 92.317 112.742 95.6812 109.352C99.0448 105.962 100.781 101.009 100.781 94.7555V53.6829C100.781 47.5272 99.0438 42.5852 95.682 39.1817C92.3192 35.7772 87.3964 33.9785 81.1601 33.9785Z" stroke="url(#paint1_linear_2_378)" stroke-linecap="round" stroke-linejoin="round"/>
</g>
<g filter="url(#filter2_bd_2_378)">
<mask id="path-5-inside-1_2_378" fill="white">
<path fill-rule="evenodd" clip-rule="evenodd" d="M48.91 52.9688V53.0085C47.1964 53.0085 45.8087 54.4001 45.8087 56.1098C45.8087 57.8195 47.1964 59.2112 48.91 59.2112H60.7945C62.5081 59.2112 63.8998 57.8195 63.8998 56.0661C63.8998 54.3604 62.5081 52.9688 60.7945 52.9688H48.91ZM80.0823 77.1836H48.91C47.1964 77.1836 45.8087 75.792 45.8087 74.0823C45.8087 72.3726 47.1964 70.977 48.91 70.977H80.0823C81.792 70.977 83.1836 72.3726 83.1836 74.0823C83.1836 75.792 81.792 77.1836 80.0823 77.1836ZM80.0826 95.3539H48.9103C47.7175 95.513 46.5645 94.9165 45.9283 93.9225C45.2921 92.8888 45.2921 91.5767 45.9283 90.5826C46.5645 89.5489 47.7175 88.9922 48.9103 89.1115H80.0826C81.6691 89.2705 82.8659 90.6224 82.8659 92.2526C82.8659 93.839 81.6691 95.1949 80.0826 95.3539Z"/>
</mask>
<path fill-rule="evenodd" clip-rule="evenodd" d="M48.91 52.9688V53.0085C47.1964 53.0085 45.8087 54.4001 45.8087 56.1098C45.8087 57.8195 47.1964 59.2112 48.91 59.2112H60.7945C62.5081 59.2112 63.8998 57.8195 63.8998 56.0661C63.8998 54.3604 62.5081 52.9688 60.7945 52.9688H48.91ZM80.0823 77.1836H48.91C47.1964 77.1836 45.8087 75.792 45.8087 74.0823C45.8087 72.3726 47.1964 70.977 48.91 70.977H80.0823C81.792 70.977 83.1836 72.3726 83.1836 74.0823C83.1836 75.792 81.792 77.1836 80.0823 77.1836ZM80.0826 95.3539H48.9103C47.7175 95.513 46.5645 94.9165 45.9283 93.9225C45.2921 92.8888 45.2921 91.5767 45.9283 90.5826C46.5645 89.5489 47.7175 88.9922 48.9103 89.1115H80.0826C81.6691 89.2705 82.8659 90.6224 82.8659 92.2526C82.8659 93.839 81.6691 95.1949 80.0826 95.3539Z" fill="url(#paint2_linear_2_378)"/>
<path d="M48.91 53.0085V53.4085H49.31V53.0085H48.91ZM48.91 52.9688V52.5687H48.51V52.9688H48.91ZM48.9103 95.3539V94.9539H48.8838L48.8575 94.9574L48.9103 95.3539ZM80.0826 95.3539V95.7539H80.1026L80.1225 95.7519L80.0826 95.3539ZM45.9283 93.9225L45.5876 94.1322L45.5914 94.1382L45.9283 93.9225ZM45.9283 90.5826L46.2653 90.7983L46.269 90.7923L45.9283 90.5826ZM48.9103 89.1115L48.8705 89.5095L48.8904 89.5115H48.9103V89.1115ZM80.0826 89.1115L80.1225 88.7135L80.1026 88.7115H80.0826V89.1115ZM49.31 53.0085V52.9688H48.51V53.0085H49.31ZM46.2087 56.1098C46.2087 54.6207 47.4176 53.4085 48.91 53.4085V52.6085C46.9751 52.6085 45.4087 54.1796 45.4087 56.1098H46.2087ZM48.91 58.8112C47.4176 58.8112 46.2087 57.599 46.2087 56.1098H45.4087C45.4087 58.0401 46.9751 59.6112 48.91 59.6112V58.8112ZM60.7945 58.8112H48.91V59.6112H60.7945V58.8112ZM63.4998 56.0661C63.4998 57.602 62.2839 58.8112 60.7945 58.8112V59.6112C62.7324 59.6112 64.2998 58.0371 64.2998 56.0661H63.4998ZM60.7945 53.3688C62.2879 53.3688 63.4998 54.582 63.4998 56.0661H64.2998C64.2998 54.1388 62.7284 52.5687 60.7945 52.5687V53.3688ZM48.91 53.3688H60.7945V52.5687H48.91V53.3688ZM48.91 77.5836H80.0823V76.7836H48.91V77.5836ZM45.4087 74.0823C45.4087 76.0126 46.9751 77.5836 48.91 77.5836V76.7836C47.4176 76.7836 46.2087 75.5714 46.2087 74.0823H45.4087ZM48.91 70.577C46.9744 70.577 45.4087 72.1527 45.4087 74.0823H46.2087C46.2087 72.5925 47.4183 71.377 48.91 71.377V70.577ZM80.0823 70.577H48.91V71.377H80.0823V70.577ZM83.5836 74.0823C83.5836 72.1524 82.0136 70.577 80.0823 70.577V71.377C81.5704 71.377 82.7836 72.5929 82.7836 74.0823H83.5836ZM80.0823 77.5836C82.0129 77.5836 83.5836 76.0129 83.5836 74.0823H82.7836C82.7836 75.5711 81.5711 76.7836 80.0823 76.7836V77.5836ZM48.9103 95.7539H80.0826V94.9539H48.9103V95.7539ZM45.5914 94.1382C46.3039 95.2514 47.6031 95.9317 48.9632 95.7504L48.8575 94.9574C47.8319 95.0942 46.825 94.5817 46.2652 93.7069L45.5914 94.1382ZM45.5914 90.367C44.8695 91.495 44.874 92.9724 45.5876 94.1322L46.269 93.7129C45.7103 92.8051 45.7148 91.6583 46.2652 90.7983L45.5914 90.367ZM48.9501 88.7135C47.6073 88.5792 46.3053 89.2067 45.5876 90.373L46.269 90.7923C46.8236 89.891 47.8278 89.4052 48.8705 89.5095L48.9501 88.7135ZM80.0826 88.7115H48.9103V89.5115H80.0826V88.7115ZM83.2659 92.2526C83.2659 90.4245 81.9209 88.8938 80.1225 88.7135L80.0427 89.5095C81.4173 89.6473 82.4659 90.8203 82.4659 92.2526H83.2659ZM80.1225 95.7519C81.9181 95.5719 83.2659 94.0398 83.2659 92.2526H82.4659C82.4659 93.6383 81.4201 94.8178 80.0427 94.9559L80.1225 95.7519Z" fill="url(#paint3_linear_2_378)" mask="url(#path-5-inside-1_2_378)"/>
</g>
<defs>
<filter id="filter0_f_2_378" x="0.487671" y="0.834808" width="103.005" height="108.567" filterUnits="userSpaceOnUse" color-interpolation-filters="sRGB">
<feFlood flood-opacity="0" result="BackgroundImageFix"/>
<feBlend mode="normal" in="SourceGraphic" in2="BackgroundImageFix" result="shape"/>
<feGaussianBlur stdDeviation="13.5" result="effect1_foregroundBlur_2_378"/>
</filter>
<filter id="filter1_b_2_378" x="3.71191" y="9.47852" width="121.569" height="129.521" filterUnits="userSpaceOnUse" color-interpolation-filters="sRGB">
<feFlood flood-opacity="0" result="BackgroundImageFix"/>
<feGaussianBlur in="BackgroundImageFix" stdDeviation="12"/>
<feComposite in2="SourceAlpha" operator="in" result="effect1_backgroundBlur_2_378"/>
<feBlend mode="normal" in="SourceGraphic" in2="effect1_backgroundBlur_2_378" result="shape"/>
</filter>
<filter id="filter2_bd_2_378" x="30.4512" y="37.9688" width="67.7324" height="72.4107" filterUnits="userSpaceOnUse" color-interpolation-filters="sRGB">
<feFlood flood-opacity="0" result="BackgroundImageFix"/>
<feGaussianBlur in="BackgroundImageFix" stdDeviation="7.5"/>
<feComposite in2="SourceAlpha" operator="in" result="effect1_backgroundBlur_2_378"/>
<feColorMatrix in="SourceAlpha" type="matrix" values="0 0 0 0 0 0 0 0 0 0 0 0 0 0 0 0 0 0 127 0" result="hardAlpha"/>
<feOffset dx="5" dy="5"/>
<feGaussianBlur stdDeviation="5"/>
<feColorMatrix type="matrix" values="0 0 0 0 0.577356 0 0 0 0 0.359375 0 0 0 0 0.9375 0 0 0 0.5 0"/>
<feBlend mode="normal" in2="effect1_backgroundBlur_2_378" result="effect2_dropShadow_2_378"/>
<feBlend mode="normal" in="SourceGraphic" in2="effect2_dropShadow_2_378" result="shape"/>
</filter>
<linearGradient id="paint0_linear_2_378" x1="43.5652" y1="18.2617" x2="64.1468" y2="95.0732" gradientUnits="userSpaceOnUse">
<stop stop-color="#BC94FF"/>
<stop offset="1" stop-color="#9F66FF"/>
</linearGradient>
<linearGradient id="paint1_linear_2_378" x1="40.1045" y1="43.7428" x2="91.6914" y2="101.245" gradientUnits="userSpaceOnUse">
<stop stop-color="white" stop-opacity="0.25"/>
<stop offset="1" stop-color="white" stop-opacity="0"/>
</linearGradient>
<linearGradient id="paint2_linear_2_378" x1="80.5084" y1="60.6273" x2="38.4687" y2="61.8468" gradientUnits="userSpaceOnUse">
<stop stop-color="white"/>
<stop offset="1" stop-color="white" stop-opacity="0.2"/>
</linearGradient>
<linearGradient id="paint3_linear_2_378" x1="51.4576" y1="57.9097" x2="79.0027" y2="88.2617" gradientUnits="userSpaceOnUse">
<stop stop-color="white" stop-opacity="0.25"/>
<stop offset="1" stop-color="white" stop-opacity="0"/>
</linearGradient>
</defs>
</svg>
