<svg width="116" height="105" viewBox="0 0 116 105" fill="none" xmlns="http://www.w3.org/2000/svg">
<path fill-rule="evenodd" clip-rule="evenodd" d="M45.1359 6.84122L17.0557 16.5458C17.0254 16.5562 16.9952 16.5668 16.965 16.5774C7.59603 19.8242 2.65498 30.1224 5.92689 39.5897L16.4736 70.1068C16.4902 70.1548 16.5069 70.2027 16.5239 70.2504L20.1834 80.8393C23.6154 90.7698 34.4176 96.0582 44.2499 92.6601L54.3368 89.1741C54.3684 89.1633 54.4001 89.1525 54.4318 89.1415L74.2755 82.2835C74.3061 82.273 74.3366 82.2623 74.3671 82.2516C83.7355 79.0044 88.6761 68.7065 85.4043 59.2395L72.29 21.2931L72.2892 21.2927L71.1478 17.99C67.7158 8.05944 56.9135 2.77112 47.0813 6.16914L45.1362 6.84138L45.1359 6.84122Z" fill="url(#paint0_linear_1102_133)"/>
<g filter="url(#filter0_b_1102_133)">
<mask id="path-2-outside-1_1102_133" maskUnits="userSpaceOnUse" x="31.9473" y="13" width="84" height="84" fill="black">
<rect fill="white" x="31.9473" y="13" width="84" height="84"/>
<path fill-rule="evenodd" clip-rule="evenodd" d="M32.9474 54.6237V71.2839C32.9467 73.0922 33.0924 74.8977 33.3831 76.6826C33.8404 79.837 34.9268 82.8678 36.5781 85.5959C37.3304 86.9126 38.2452 88.1299 39.3011 89.2192C44.1546 93.658 50.5895 95.9683 57.1641 95.6325H90.3486C96.9127 95.9707 103.337 93.6595 108.175 89.2192C109.244 88.132 110.171 86.9146 110.935 85.5959C112.596 82.8658 113.706 79.8379 114.202 76.6826C114.463 74.8947 114.596 73.0906 114.602 71.2839V49.8339C114.726 45.727 114.123 41.6304 112.822 37.7321C112.161 35.8354 111.152 34.0783 109.845 32.5508C109.435 32.0684 108.985 31.6201 108.502 31.2102C104.305 27.9091 99.0167 26.3052 93.6888 26.7173H81.4478C78.5498 26.6608 75.8162 25.3401 73.974 23.0956L70.0165 17.6245C68.1512 15.2928 65.3089 13.9549 62.3195 14.0012H53.8237C38.5748 14.0012 32.9473 22.9507 32.9473 38.1686V54.6184C32.9473 54.6201 32.9473 54.6219 32.9474 54.6237Z"/>
</mask>
<path fill-rule="evenodd" clip-rule="evenodd" d="M32.9474 54.6237V71.2839C32.9467 73.0922 33.0924 74.8977 33.3831 76.6826C33.8404 79.837 34.9268 82.8678 36.5781 85.5959C37.3304 86.9126 38.2452 88.1299 39.3011 89.2192C44.1546 93.658 50.5895 95.9683 57.1641 95.6325H90.3486C96.9127 95.9707 103.337 93.6595 108.175 89.2192C109.244 88.132 110.171 86.9146 110.935 85.5959C112.596 82.8658 113.706 79.8379 114.202 76.6826C114.463 74.8947 114.596 73.0906 114.602 71.2839V49.8339C114.726 45.727 114.123 41.6304 112.822 37.7321C112.161 35.8354 111.152 34.0783 109.845 32.5508C109.435 32.0684 108.985 31.6201 108.502 31.2102C104.305 27.9091 99.0167 26.3052 93.6888 26.7173H81.4478C78.5498 26.6608 75.8162 25.3401 73.974 23.0956L70.0165 17.6245C68.1512 15.2928 65.3089 13.9549 62.3195 14.0012H53.8237C38.5748 14.0012 32.9473 22.9507 32.9473 38.1686V54.6184C32.9473 54.6201 32.9473 54.6219 32.9474 54.6237Z" fill="#FF9F47"/>
<path d="M32.9474 54.6237H33.9474C33.9474 54.598 33.9465 54.5723 33.9445 54.5467L32.9474 54.6237ZM32.9474 71.2839L33.9474 71.2843V71.2839H32.9474ZM33.3831 76.6826L34.3728 76.5391C34.3719 76.5334 34.3711 76.5276 34.3701 76.5218L33.3831 76.6826ZM36.5781 85.5959L37.4464 85.0999C37.4422 85.0926 37.438 85.0853 37.4336 85.0781L36.5781 85.5959ZM39.3011 89.2192L38.5831 89.9153C38.5971 89.9296 38.6115 89.9436 38.6263 89.9572L39.3011 89.2192ZM57.1641 95.6325V94.6325C57.1471 94.6325 57.1301 94.6329 57.1131 94.6338L57.1641 95.6325ZM90.3486 95.6325L90.4 94.6338C90.3829 94.6329 90.3657 94.6325 90.3486 94.6325V95.6325ZM108.175 89.2192L108.851 89.956C108.864 89.9444 108.876 89.9325 108.888 89.9202L108.175 89.2192ZM110.935 85.5959L110.08 85.0761C110.076 85.0823 110.073 85.0886 110.069 85.0949L110.935 85.5959ZM114.202 76.6826L115.19 76.838L115.192 76.8269L114.202 76.6826ZM114.602 71.2839L115.602 71.2868V71.2839H114.602ZM114.602 49.8339L113.602 49.8037C113.602 49.8138 113.602 49.8239 113.602 49.8339L114.602 49.8339ZM112.822 37.7321L113.771 37.4155L113.767 37.403L112.822 37.7321ZM109.845 32.5508L109.084 33.1991L109.085 33.2007L109.845 32.5508ZM108.502 31.2102L109.149 30.4475C109.139 30.4395 109.13 30.4317 109.12 30.4242L108.502 31.2102ZM93.6888 26.7173V27.7173C93.7145 27.7173 93.7402 27.7163 93.7659 27.7143L93.6888 26.7173ZM81.4478 26.7173L81.4283 27.7171C81.4348 27.7172 81.4413 27.7173 81.4478 27.7173V26.7173ZM73.974 23.0956L73.1637 23.6817C73.1757 23.6982 73.1881 23.7144 73.201 23.7301L73.974 23.0956ZM70.0165 17.6245L70.8268 17.0384C70.8173 17.0253 70.8075 17.0124 70.7974 16.9997L70.0165 17.6245ZM62.3195 14.0012V15.0012C62.3247 15.0012 62.3298 15.0011 62.335 15.001L62.3195 14.0012ZM32.9473 54.6184L33.9473 54.6289V54.6184H32.9473ZM31.9474 54.6237V71.2839H33.9474V54.6237H31.9474ZM31.9474 71.2834C31.9466 73.1458 32.0967 75.0052 32.3961 76.8434L34.3701 76.5218C34.088 74.7902 33.9467 73.0387 33.9474 71.2843L31.9474 71.2834ZM32.3935 76.8261C32.87 80.113 34.0021 83.2711 35.7226 86.1137L37.4336 85.0781C35.8516 82.4645 34.8109 79.5609 34.3728 76.5391L32.3935 76.8261ZM35.7098 86.092C36.5036 87.4814 37.4689 88.7658 38.5831 89.9153L40.0192 88.5232C39.0214 87.4939 38.1571 86.3438 37.4464 85.0999L35.7098 86.092ZM38.6263 89.9572C43.6773 94.5766 50.3736 96.9806 57.2151 96.6312L57.1131 94.6338C50.8053 94.9559 44.6319 92.7394 39.976 88.4813L38.6263 89.9572ZM57.1641 96.6325H90.3486V94.6325H57.1641V96.6325ZM90.2971 96.6311C97.1288 96.9832 103.816 94.5778 108.851 89.956L107.499 88.4825C102.859 92.7412 96.6966 94.9583 90.4 94.6338L90.2971 96.6311ZM108.888 89.9202C110.016 88.7731 110.994 87.4885 111.8 86.097L110.069 85.0949C109.348 86.3408 108.472 87.4909 107.462 88.5182L108.888 89.9202ZM111.789 86.1157C113.518 83.2741 114.673 80.1224 115.19 76.838L113.214 76.5272C112.738 79.5534 111.674 82.4576 110.08 85.0761L111.789 86.1157ZM115.192 76.8269C115.459 74.9922 115.596 73.1408 115.602 71.2868L113.602 71.281C113.596 73.0404 113.466 74.7972 113.213 76.5383L115.192 76.8269ZM115.602 71.2839V49.8339H113.602V71.2839H115.602ZM115.601 49.8641C115.729 45.6395 115.109 41.4255 113.771 37.4156L111.874 38.0487C113.138 41.8353 113.723 45.8145 113.602 49.8037L115.601 49.8641ZM113.767 37.403C113.065 35.3887 111.992 33.5228 110.605 31.9008L109.085 33.2007C110.311 34.6338 111.258 36.2821 111.878 38.0613L113.767 37.403ZM110.607 31.9025C110.161 31.3789 109.673 30.8923 109.149 30.4475L107.855 31.9729C108.297 32.3478 108.708 32.7579 109.084 33.1991L110.607 31.9025ZM109.12 30.4242C104.726 26.968 99.1894 25.2889 93.6117 25.7203L93.7659 27.7143C98.844 27.3216 103.884 28.8503 107.884 31.9962L109.12 30.4242ZM93.6888 25.7173H81.4478V27.7173H93.6888V25.7173ZM81.4673 25.7175C78.861 25.6667 76.4031 24.4789 74.747 22.4612L73.201 23.7301C75.2294 26.2013 78.2386 27.655 81.4283 27.7171L81.4673 25.7175ZM74.7842 22.5096L70.8268 17.0384L69.2063 18.2105L73.1637 23.6817L74.7842 22.5096ZM70.7974 16.9997C68.7386 14.4263 65.6021 12.9502 62.304 13.0013L62.335 15.001C65.0156 14.9595 67.5637 16.1594 69.2357 18.2492L70.7974 16.9997ZM62.3195 13.0012H53.8237V15.0012H62.3195V13.0012ZM53.8237 13.0012C45.9979 13.0012 40.445 15.3068 36.8864 19.7533C33.3651 24.1533 31.9473 30.4685 31.9473 38.1686H33.9473C33.9473 30.6508 35.3433 24.8823 38.4479 21.003C41.5153 17.1703 46.4007 15.0012 53.8237 15.0012V13.0012ZM31.9473 38.1686V54.6184H33.9473V38.1686H31.9473ZM31.9473 54.6079C31.947 54.639 31.948 54.67 31.9504 54.7006L33.9445 54.5467C33.9466 54.5738 33.9475 54.6012 33.9472 54.6289L31.9473 54.6079Z" fill="url(#paint1_linear_1102_133)" mask="url(#path-2-outside-1_1102_133)"/>
</g>
<g filter="url(#filter1_bd_1102_133)">
<path d="M94.4231 77.6847H53.3238C51.459 77.6847 49.9473 76.176 49.9473 74.315C49.9473 72.454 51.459 70.9453 53.3238 70.9453H94.7499C95.7556 70.9567 96.6972 71.4399 97.2914 72.2497C97.808 72.8523 98.0685 73.6323 98.0175 74.4237C97.9893 75.3241 97.6009 76.1757 96.9392 76.7884C96.2775 77.4011 95.3976 77.7238 94.4958 77.6847H94.4231Z" fill="url(#paint2_linear_1102_133)"/>
<path d="M97.1301 72.368L97.1346 72.3741L97.1395 72.3799C97.6222 72.9429 97.8656 73.6716 97.8179 74.4108L97.8178 74.4108L97.8176 74.4174C97.791 75.2642 97.4258 76.0652 96.8033 76.6416C96.1809 77.218 95.353 77.5217 94.5044 77.4848L94.5044 77.4847H94.4958H94.4231H53.3238C51.5691 77.4847 50.1473 76.0652 50.1473 74.315C50.1473 72.5648 51.5691 71.1453 53.3238 71.1453H94.7488C95.6912 71.1563 96.5734 71.6094 97.1301 72.368Z" stroke="url(#paint3_linear_1102_133)" stroke-width="0.4"/>
</g>
<defs>
<filter id="filter0_b_1102_133" x="16.9473" y="-2" width="113.67" height="113.665" filterUnits="userSpaceOnUse" color-interpolation-filters="sRGB">
<feFlood flood-opacity="0" result="BackgroundImageFix"/>
<feGaussianBlur in="BackgroundImageFix" stdDeviation="7.5"/>
<feComposite in2="SourceAlpha" operator="in" result="effect1_backgroundBlur_1102_133"/>
<feBlend mode="normal" in="SourceGraphic" in2="effect1_backgroundBlur_1102_133" result="shape"/>
</filter>
<filter id="filter1_bd_1102_133" x="34.9473" y="55.9453" width="78.0765" height="36.7425" filterUnits="userSpaceOnUse" color-interpolation-filters="sRGB">
<feFlood flood-opacity="0" result="BackgroundImageFix"/>
<feGaussianBlur in="BackgroundImageFix" stdDeviation="7.5"/>
<feComposite in2="SourceAlpha" operator="in" result="effect1_backgroundBlur_1102_133"/>
<feColorMatrix in="SourceAlpha" type="matrix" values="0 0 0 0 0 0 0 0 0 0 0 0 0 0 0 0 0 0 127 0" result="hardAlpha"/>
<feOffset dx="5" dy="5"/>
<feGaussianBlur stdDeviation="5"/>
<feColorMatrix type="matrix" values="0 0 0 0 0.976471 0 0 0 0 0.435294 0 0 0 0 0.352941 0 0 0 0.5 0"/>
<feBlend mode="normal" in2="effect1_backgroundBlur_1102_133" result="effect2_dropShadow_1102_133"/>
<feBlend mode="normal" in="SourceGraphic" in2="effect2_dropShadow_1102_133" result="shape"/>
</filter>
<linearGradient id="paint0_linear_1102_133" x1="36.2277" y1="9.91988" x2="62.628" y2="86.3092" gradientUnits="userSpaceOnUse">
<stop stop-color="#FFB37F"/>
<stop offset="1" stop-color="#FF7B0D"/>
</linearGradient>
<linearGradient id="paint1_linear_1102_133" x1="45.9478" y1="23.5141" x2="98.0407" y2="88.0365" gradientUnits="userSpaceOnUse">
<stop stop-color="white" stop-opacity="0.25"/>
<stop offset="1" stop-color="white" stop-opacity="0"/>
</linearGradient>
<linearGradient id="paint2_linear_1102_133" x1="94.6152" y1="72.1629" x2="43.7545" y2="83.987" gradientUnits="userSpaceOnUse">
<stop stop-color="white"/>
<stop offset="1" stop-color="white" stop-opacity="0.2"/>
</linearGradient>
<linearGradient id="paint3_linear_1102_133" x1="57.6003" y1="71.7308" x2="58.5841" y2="80.419" gradientUnits="userSpaceOnUse">
<stop stop-color="white" stop-opacity="0.25"/>
<stop offset="1" stop-color="white" stop-opacity="0"/>
</linearGradient>
</defs>
</svg>
