<svg width="103" height="100" viewBox="0 0 103 100" fill="none" xmlns="http://www.w3.org/2000/svg">
<g filter="url(#filter0_b_2_220)">
<path d="M63.5643 16.9918C59.6546 16.9518 55.7856 16.8719 51.9166 16.8719V16.1122C51.8759 10.1151 46.8665 5.1975 40.7169 5.15751H36.685C35.4632 5.15751 34.445 4.19798 34.445 2.99856C34.445 1.35934 33.1011 0 31.3906 0C29.7208 0 28.3361 1.35934 28.3361 2.99856C28.3361 7.4764 32.0829 11.1546 36.685 11.1546H40.7169C43.4863 11.1546 45.8077 13.3935 45.8077 16.1522V16.8319C40.2689 16.8319 34.8116 16.9119 29.4764 16.9918C15.3037 16.9918 5 27.067 5 40.9802V58.8516C5 72.7649 15.3037 82.8401 29.4357 82.8401C35.0967 82.96 40.8391 83 46.5407 83C52.2424 83 57.9033 82.96 63.5643 82.8401C77.6963 82.8401 88 72.7649 88 58.8516V40.9802C88 27.067 77.6963 16.9918 63.5643 16.9918" fill="url(#paint0_linear_2_220)"/>
</g>
<g opacity="0.5" filter="url(#filter1_f_2_220)">
<path d="M59.5275 29.7949H32.9021C23.1995 29.7949 17.7021 33.8456 17.7021 40.9949V60.5949C17.7021 67.7443 23.1995 71.7949 32.9021 71.7949H59.5275C69.2301 71.7949 74.7021 67.7443 74.7021 60.5949V40.9949C74.7021 33.8456 69.2301 29.7949 59.5275 29.7949Z" fill="#E31352"/>
</g>
<g filter="url(#filter2_b_2_220)">
<path d="M70.6235 24.1574C66.7766 24.118 62.9697 24.0393 59.1629 24.0393C57.1593 24 55.1557 24 53.1521 24C47.7023 24 42.3327 24.0787 37.0833 24.1574C23.1382 24.1574 13 34.0706 13 47.7602V65.3443C13 79.034 23.1382 88.9472 37.0432 88.9472C42.6132 89.0652 48.2633 89.1045 53.8734 89.1045C59.4835 89.1045 65.0535 89.0652 70.6235 88.9472C84.5285 88.9472 94.6667 79.034 94.6667 65.3443V47.7602C94.6667 34.0706 84.5285 24.1574 70.6235 24.1574Z" fill="#FF749F" fill-opacity="0.95"/>
</g>
<path d="M47.488 49.9816H43.2804V54.1514C43.2804 55.7643 41.918 57.1018 40.275 57.1018C38.592 57.1018 37.2696 55.7643 37.2696 54.1514V49.9816H33.022C31.379 49.9816 30.0166 48.6834 30.0166 47.0312C30.0166 45.4184 31.379 44.0809 33.022 44.0809H37.2696V39.9504C37.2696 38.3375 38.592 37 40.275 37C41.918 37 43.2804 38.3375 43.2804 39.9504V44.0809H47.488C49.1309 44.0809 50.4934 45.4184 50.4934 47.0312C50.4934 48.6834 49.1309 49.9816 47.488 49.9816" fill="#DADADA"/>
<g filter="url(#filter3_bd_2_220)">
<mask id="path-5-inside-1_2_220" fill="white">
<path d="M47.4714 50.0031H43.2638V54.1729C43.2638 55.7858 41.9014 57.1233 40.2584 57.1233C38.5754 57.1233 37.253 55.7858 37.253 54.1729V50.0031H33.0054C31.3624 50.0031 30 48.7049 30 47.0527C30 45.4398 31.3624 44.1023 33.0054 44.1023H37.253V39.9718C37.253 38.359 38.5754 37.0215 40.2584 37.0215C41.9014 37.0215 43.2638 38.359 43.2638 39.9718V44.1023H47.4714C49.1143 44.1023 50.4768 45.4398 50.4768 47.0527C50.4768 48.7049 49.1143 50.0031 47.4714 50.0031"/>
</mask>
<path d="M47.4714 50.0031H43.2638V54.1729C43.2638 55.7858 41.9014 57.1233 40.2584 57.1233C38.5754 57.1233 37.253 55.7858 37.253 54.1729V50.0031H33.0054C31.3624 50.0031 30 48.7049 30 47.0527C30 45.4398 31.3624 44.1023 33.0054 44.1023H37.253V39.9718C37.253 38.359 38.5754 37.0215 40.2584 37.0215C41.9014 37.0215 43.2638 38.359 43.2638 39.9718V44.1023H47.4714C49.1143 44.1023 50.4768 45.4398 50.4768 47.0527C50.4768 48.7049 49.1143 50.0031 47.4714 50.0031" fill="url(#paint1_linear_2_220)"/>
<path d="M43.2638 50.0031V49.6031H42.8638V50.0031H43.2638ZM37.253 50.0031H37.653V49.6031H37.253V50.0031ZM37.253 44.1023V44.5023H37.653V44.1023H37.253ZM43.2638 44.1023H42.8638V44.5023H43.2638V44.1023ZM47.4714 49.6031H43.2638V50.4031H47.4714V49.6031ZM42.8638 50.0031V54.1729H43.6638V50.0031H42.8638ZM42.8638 54.1729C42.8638 55.5579 41.6875 56.7233 40.2584 56.7233V57.5233C42.1153 57.5233 43.6638 56.0136 43.6638 54.1729H42.8638ZM40.2584 56.7233C38.7928 56.7233 37.653 55.5614 37.653 54.1729H36.853C36.853 56.0102 38.358 57.5233 40.2584 57.5233V56.7233ZM37.653 54.1729V50.0031H36.853V54.1729H37.653ZM37.253 49.6031H33.0054V50.4031H37.253V49.6031ZM33.0054 49.6031C31.5728 49.6031 30.4 48.4736 30.4 47.0527H29.6C29.6 48.9362 31.152 50.4031 33.0054 50.4031V49.6031ZM30.4 47.0527C30.4 45.6677 31.5764 44.5023 33.0054 44.5023V43.7023C31.1485 43.7023 29.6 45.212 29.6 47.0527H30.4ZM33.0054 44.5023H37.253V43.7023H33.0054V44.5023ZM37.653 44.1023V39.9718H36.853V44.1023H37.653ZM37.653 39.9718C37.653 38.5834 38.7928 37.4215 40.2584 37.4215V36.6215C38.358 36.6215 36.853 38.1346 36.853 39.9718H37.653ZM40.2584 37.4215C41.6875 37.4215 42.8638 38.5868 42.8638 39.9718H43.6638C43.6638 38.1311 42.1153 36.6215 40.2584 36.6215V37.4215ZM42.8638 39.9718V44.1023H43.6638V39.9718H42.8638ZM43.2638 44.5023H47.4714V43.7023H43.2638V44.5023ZM47.4714 44.5023C48.9004 44.5023 50.0768 45.6677 50.0768 47.0527H50.8768C50.8768 45.212 49.3282 43.7023 47.4714 43.7023V44.5023ZM50.0768 47.0527C50.0768 48.4736 48.9039 49.6031 47.4714 49.6031V50.4031C49.3247 50.4031 50.8768 48.9362 50.8768 47.0527H50.0768Z" fill="url(#paint2_linear_2_220)" mask="url(#path-5-inside-1_2_220)"/>
</g>
<g filter="url(#filter4_bd_2_220)">
<mask id="path-7-inside-2_2_220" fill="white">
<path fill-rule="evenodd" clip-rule="evenodd" d="M74.9997 74.9484C74.9997 73.4084 73.7216 72.1984 72.1803 72.1984L67.8195 72.1984C66.2782 72.1984 65 73.4084 65 74.9484C65 76.4518 66.2782 77.6984 67.8195 77.6984L72.1803 77.6984C73.7216 77.6984 74.9997 76.4518 74.9997 74.9484ZM75 46.75C75 45.21 73.7218 44 72.1805 44L67.8197 44C66.2784 44 65.0003 45.21 65.0003 46.75C65.0003 48.2533 66.2784 49.5 67.8197 49.5L72.1805 49.5C73.7218 49.5 75 48.2533 75 46.75Z"/>
</mask>
<path fill-rule="evenodd" clip-rule="evenodd" d="M74.9997 74.9484C74.9997 73.4084 73.7216 72.1984 72.1803 72.1984L67.8195 72.1984C66.2782 72.1984 65 73.4084 65 74.9484C65 76.4518 66.2782 77.6984 67.8195 77.6984L72.1803 77.6984C73.7216 77.6984 74.9997 76.4518 74.9997 74.9484ZM75 46.75C75 45.21 73.7218 44 72.1805 44L67.8197 44C66.2784 44 65.0003 45.21 65.0003 46.75C65.0003 48.2533 66.2784 49.5 67.8197 49.5L72.1805 49.5C73.7218 49.5 75 48.2533 75 46.75Z" fill="url(#paint3_linear_2_220)"/>
<path d="M72.1805 44L72.1805 43.8L72.1805 44ZM67.8197 44L67.8197 44.2L67.8197 44ZM67.8197 49.5L67.8197 49.7L67.8197 49.5ZM72.1805 49.5L72.1805 49.3L72.1805 49.5ZM72.1803 72.3984C73.6176 72.3984 74.7997 73.5253 74.7997 74.9484L75.1997 74.9484C75.1997 73.2916 73.8255 71.9984 72.1803 71.9984L72.1803 72.3984ZM67.8195 72.3984L72.1803 72.3984L72.1803 71.9984L67.8195 71.9984L67.8195 72.3984ZM65.2 74.9484C65.2 73.5253 66.3821 72.3984 67.8195 72.3984L67.8195 71.9984C66.1742 71.9984 64.8 73.2916 64.8 74.9484L65.2 74.9484ZM67.8195 77.4984C66.3839 77.4984 65.2 76.3366 65.2 74.9484L64.8 74.9484C64.8 76.5669 66.1724 77.8984 67.8195 77.8984L67.8195 77.4984ZM72.1803 77.4984L67.8195 77.4984L67.8195 77.8984L72.1803 77.8984L72.1803 77.4984ZM74.7997 74.9484C74.7997 76.3366 73.6158 77.4984 72.1803 77.4984L72.1803 77.8984C73.8273 77.8984 75.1997 76.5669 75.1997 74.9484L74.7997 74.9484ZM72.1805 44.2C73.6179 44.2 74.8 45.3268 74.8 46.75L75.2 46.75C75.2 45.0932 73.8258 43.8 72.1805 43.8L72.1805 44.2ZM67.8197 44.2L72.1805 44.2L72.1805 43.8L67.8197 43.8L67.8197 44.2ZM65.2003 46.75C65.2003 45.3268 66.3824 44.2 67.8197 44.2L67.8197 43.8C66.1745 43.8 64.8003 45.0932 64.8003 46.75L65.2003 46.75ZM67.8197 49.3C66.3841 49.3 65.2003 48.1382 65.2003 46.75L64.8003 46.75C64.8003 48.3685 66.1727 49.7 67.8197 49.7L67.8197 49.3ZM72.1805 49.3L67.8197 49.3L67.8197 49.7L72.1805 49.7L72.1805 49.3ZM74.8 46.75C74.8 48.1382 73.6161 49.3 72.1805 49.3L72.1805 49.7C73.8276 49.7 75.2 48.3685 75.2 46.75L74.8 46.75Z" fill="url(#paint4_linear_2_220)" fill-opacity="0.5" mask="url(#path-7-inside-2_2_220)"/>
</g>
<defs>
<filter id="filter0_b_2_220" x="-8" y="-13" width="109" height="109" filterUnits="userSpaceOnUse" color-interpolation-filters="sRGB">
<feFlood flood-opacity="0" result="BackgroundImageFix"/>
<feGaussianBlur in="BackgroundImageFix" stdDeviation="6.5"/>
<feComposite in2="SourceAlpha" operator="in" result="effect1_backgroundBlur_2_220"/>
<feBlend mode="normal" in="SourceGraphic" in2="effect1_backgroundBlur_2_220" result="shape"/>
</filter>
<filter id="filter1_f_2_220" x="0.702148" y="12.7949" width="91" height="76" filterUnits="userSpaceOnUse" color-interpolation-filters="sRGB">
<feFlood flood-opacity="0" result="BackgroundImageFix"/>
<feBlend mode="normal" in="SourceGraphic" in2="BackgroundImageFix" result="shape"/>
<feGaussianBlur stdDeviation="8.5" result="effect1_foregroundBlur_2_220"/>
</filter>
<filter id="filter2_b_2_220" x="-11" y="0" width="129.667" height="113.105" filterUnits="userSpaceOnUse" color-interpolation-filters="sRGB">
<feFlood flood-opacity="0" result="BackgroundImageFix"/>
<feGaussianBlur in="BackgroundImageFix" stdDeviation="12"/>
<feComposite in2="SourceAlpha" operator="in" result="effect1_backgroundBlur_2_220"/>
<feBlend mode="normal" in="SourceGraphic" in2="effect1_backgroundBlur_2_220" result="shape"/>
</filter>
<filter id="filter3_bd_2_220" x="15" y="22.0215" width="50.4768" height="50.1018" filterUnits="userSpaceOnUse" color-interpolation-filters="sRGB">
<feFlood flood-opacity="0" result="BackgroundImageFix"/>
<feGaussianBlur in="BackgroundImageFix" stdDeviation="7.5"/>
<feComposite in2="SourceAlpha" operator="in" result="effect1_backgroundBlur_2_220"/>
<feColorMatrix in="SourceAlpha" type="matrix" values="0 0 0 0 0 0 0 0 0 0 0 0 0 0 0 0 0 0 127 0" result="hardAlpha"/>
<feOffset dx="5" dy="5"/>
<feGaussianBlur stdDeviation="5"/>
<feColorMatrix type="matrix" values="0 0 0 0 1 0 0 0 0 0.321569 0 0 0 0 0.54902 0 0 0 0.5 0"/>
<feBlend mode="normal" in2="effect1_backgroundBlur_2_220" result="effect2_dropShadow_2_220"/>
<feBlend mode="normal" in="SourceGraphic" in2="effect2_dropShadow_2_220" result="shape"/>
</filter>
<filter id="filter4_bd_2_220" x="50" y="29" width="40" height="63.6984" filterUnits="userSpaceOnUse" color-interpolation-filters="sRGB">
<feFlood flood-opacity="0" result="BackgroundImageFix"/>
<feGaussianBlur in="BackgroundImageFix" stdDeviation="7.5"/>
<feComposite in2="SourceAlpha" operator="in" result="effect1_backgroundBlur_2_220"/>
<feColorMatrix in="SourceAlpha" type="matrix" values="0 0 0 0 0 0 0 0 0 0 0 0 0 0 0 0 0 0 127 0" result="hardAlpha"/>
<feOffset dx="5" dy="5"/>
<feGaussianBlur stdDeviation="5"/>
<feColorMatrix type="matrix" values="0 0 0 0 1 0 0 0 0 0.447059 0 0 0 0 0.368627 0 0 0 0.5 0"/>
<feBlend mode="normal" in2="effect1_backgroundBlur_2_220" result="effect2_dropShadow_2_220"/>
<feBlend mode="normal" in="SourceGraphic" in2="effect2_dropShadow_2_220" result="shape"/>
</filter>
<linearGradient id="paint0_linear_2_220" x1="52.6104" y1="47.058" x2="-20.3208" y2="82.5188" gradientUnits="userSpaceOnUse">
<stop stop-color="#FF759F"/>
<stop offset="1" stop-color="#FF196E"/>
</linearGradient>
<linearGradient id="paint1_linear_2_220" x1="49.025" y1="40.6515" x2="26.2167" y2="41.409" gradientUnits="userSpaceOnUse">
<stop stop-color="white"/>
<stop offset="1" stop-color="white" stop-opacity="0.2"/>
</linearGradient>
<linearGradient id="paint2_linear_2_220" x1="33.2596" y1="39.3634" x2="46.0304" y2="55.4755" gradientUnits="userSpaceOnUse">
<stop stop-color="white" stop-opacity="0.25"/>
<stop offset="1" stop-color="white" stop-opacity="0"/>
</linearGradient>
<linearGradient id="paint3_linear_2_220" x1="66.8058" y1="46.3892" x2="70.8852" y2="83.5177" gradientUnits="userSpaceOnUse">
<stop stop-color="white"/>
<stop offset="1" stop-color="white" stop-opacity="0.2"/>
</linearGradient>
<linearGradient id="paint4_linear_2_220" x1="70.2115" y1="45.4439" x2="74.7298" y2="77.6288" gradientUnits="userSpaceOnUse">
<stop stop-color="white"/>
<stop offset="1" stop-color="white" stop-opacity="0"/>
</linearGradient>
</defs>
</svg>
