<svg width="72" height="84" viewBox="0 0 72 84" fill="none" xmlns="http://www.w3.org/2000/svg">
<g filter="url(#filter0_b_1102_144)">
<path d="M35.6816 1C16.6958 1 1 16.1814 1 34.9642C1 44.4291 4.4381 53.2161 10.1079 60.6639C16.3047 68.8794 24.0085 76.0372 32.7293 81.6557C34.9075 83.0522 36.6986 82.9542 38.6832 81.6557C47.3546 76.0372 55.0585 68.8794 61.3088 60.6639C66.9745 53.2161 70.4167 44.4291 70.4167 34.9642C70.4167 16.1814 54.7208 1 35.6816 1Z" fill="#4CAF50" fill-opacity="0.77"/>
<path d="M32.4585 82.0761L32.4595 82.0767C33.6057 82.8115 34.6931 83.1801 35.7852 83.1663C36.876 83.1525 37.9116 82.7579 38.9559 82.0749C47.6757 76.4249 55.4218 69.2275 61.7067 60.9667L61.7067 60.9667C67.4281 53.4457 70.9167 44.5546 70.9167 34.9642C70.9167 15.8932 54.9847 0.5 35.6816 0.5C16.4314 0.5 0.5 15.8937 0.5 34.9642C0.5 44.5541 3.98408 53.4449 9.7093 60.9658C15.9416 69.228 23.6886 76.426 32.4585 82.0761Z" stroke="url(#paint0_linear_1102_144)" stroke-linecap="round" stroke-linejoin="round"/>
</g>
<g filter="url(#filter1_bd_1102_144)">
<mask id="path-3-inside-1_1102_144" fill="white">
<path d="M35.4301 47.26C29.1345 47.26 24 42.3112 24 36.0189C24 29.7757 29.1345 24.5859 35.4301 24.5859C41.7299 24.5859 46.9138 29.7757 46.9138 36.0189C46.9138 42.3112 41.7299 47.26 35.4301 47.26"/>
</mask>
<path d="M35.4301 47.26C29.1345 47.26 24 42.3112 24 36.0189C24 29.7757 29.1345 24.5859 35.4301 24.5859C41.7299 24.5859 46.9138 29.7757 46.9138 36.0189C46.9138 42.3112 41.7299 47.26 35.4301 47.26" fill="url(#paint1_linear_1102_144)"/>
<path d="M35.4301 47.06C29.2406 47.06 24.2 42.1964 24.2 36.0189H23.8C23.8 42.4259 29.0284 47.46 35.4301 47.46V47.06ZM24.2 36.0189C24.2 29.8855 29.2456 24.7859 35.4301 24.7859V24.3859C29.0234 24.3859 23.8 29.6659 23.8 36.0189H24.2ZM35.4301 24.7859C41.6199 24.7859 46.7138 29.8867 46.7138 36.0189H47.1138C47.1138 29.6647 41.8398 24.3859 35.4301 24.3859V24.7859ZM46.7138 36.0189C46.7138 42.1953 41.625 47.06 35.4301 47.06V47.46C41.8348 47.46 47.1138 42.4271 47.1138 36.0189H46.7138Z" fill="url(#paint2_linear_1102_144)" fill-opacity="0.5" mask="url(#path-3-inside-1_1102_144)"/>
</g>
<defs>
<filter id="filter0_b_1102_144" x="-24" y="-24" width="119.417" height="131.667" filterUnits="userSpaceOnUse" color-interpolation-filters="sRGB">
<feFlood flood-opacity="0" result="BackgroundImageFix"/>
<feGaussianBlur in="BackgroundImageFix" stdDeviation="12"/>
<feComposite in2="SourceAlpha" operator="in" result="effect1_backgroundBlur_1102_144"/>
<feBlend mode="normal" in="SourceGraphic" in2="effect1_backgroundBlur_1102_144" result="shape"/>
</filter>
<filter id="filter1_bd_1102_144" x="9" y="9.58594" width="52.9138" height="52.6741" filterUnits="userSpaceOnUse" color-interpolation-filters="sRGB">
<feFlood flood-opacity="0" result="BackgroundImageFix"/>
<feGaussianBlur in="BackgroundImageFix" stdDeviation="7.5"/>
<feComposite in2="SourceAlpha" operator="in" result="effect1_backgroundBlur_1102_144"/>
<feColorMatrix in="SourceAlpha" type="matrix" values="0 0 0 0 0 0 0 0 0 0 0 0 0 0 0 0 0 0 127 0" result="hardAlpha"/>
<feOffset dx="5" dy="5"/>
<feGaussianBlur stdDeviation="5"/>
<feColorMatrix type="matrix" values="0 0 0 0 0.15375 0 0 0 0 0.522433 0 0 0 0 0.9 0 0 0 0.5 0"/>
<feBlend mode="normal" in2="effect1_backgroundBlur_1102_144" result="effect2_dropShadow_1102_144"/>
<feBlend mode="normal" in="SourceGraphic" in2="effect2_dropShadow_1102_144" result="shape"/>
</filter>
<linearGradient id="paint0_linear_1102_144" x1="12.05" y1="10.5143" x2="65.2709" y2="66.5423" gradientUnits="userSpaceOnUse">
<stop stop-color="white" stop-opacity="0.25"/>
<stop offset="1" stop-color="white" stop-opacity="0"/>
</linearGradient>
<linearGradient id="paint1_linear_1102_144" x1="45.2892" y1="28.6804" x2="19.766" y2="29.5214" gradientUnits="userSpaceOnUse">
<stop stop-color="white"/>
<stop offset="1" stop-color="white" stop-opacity="0.2"/>
</linearGradient>
<linearGradient id="paint2_linear_1102_144" x1="26.4683" y1="32.192" x2="45.9253" y2="32.3005" gradientUnits="userSpaceOnUse">
<stop stop-color="white"/>
<stop offset="1" stop-color="white" stop-opacity="0"/>
</linearGradient>
</defs>
</svg>
