<svg width="131" height="99" viewBox="0 0 131 99" fill="none" xmlns="http://www.w3.org/2000/svg">
<path fill-rule="evenodd" clip-rule="evenodd" d="M53.1072 83.4069L71.6237 77.285C71.6526 77.2754 71.6815 77.2658 71.7104 77.256C80.6429 74.2942 85.2727 64.6769 82.0532 55.7649L69.1487 20.0442L69.148 20.0438L68.0249 16.9348C64.6478 7.58674 54.2634 2.52761 44.889 5.62698L43.0345 6.24014L43.0342 6.23999L16.2615 15.0916C16.2325 15.1012 16.2035 15.1109 16.1746 15.1206C7.24229 18.0825 2.61259 27.6998 5.83207 36.6116L16.059 64.9209C16.0759 64.9675 16.0928 65.014 16.11 65.0604L19.8604 75.4418C23.2374 84.7898 33.6218 89.849 42.9962 86.7496L53.0146 83.4373C53.0455 83.4273 53.0763 83.4171 53.1072 83.4069Z" fill="url(#paint0_linear_1104_48)"/>
<g opacity="0.5" filter="url(#filter0_f_1104_48)">
<path d="M60.7861 64.4794L53.5054 66.9236C48.1936 68.7067 42.3375 68.1937 37.3626 65.5094L36.8301 65.2221C32.3846 62.8234 28.987 58.8755 27.3087 54.1583L22.3571 40.2411C20.4697 34.9363 23.1672 29.2178 28.3828 27.4669L45.1234 21.847C50.5915 20.0114 56.6558 23.028 58.6346 28.5895L66.8387 51.6483C68.7261 56.9531 66.0228 62.7215 60.7861 64.4794Z" fill="#E46800"/>
</g>
<g filter="url(#filter1_b_1104_48)">
<path d="M51.6826 20.0141L81.1951 20.0141L102 41.7524L102 80.4922C102 90.1624 94.0112 98 84.1544 98H52.5172C42.1834 98 33.7574 89.7725 33.7574 79.6343L33.7574 37.5999C33.7574 27.9297 41.786 20.0141 51.6826 20.0141Z" fill="#FFCBB9"/>
<path d="M81.5563 19.6684C81.462 19.5698 81.3315 19.5141 81.1951 19.5141L51.6826 19.5141C41.5182 19.5141 33.2574 27.6453 33.2574 37.5999L33.2574 79.6343C33.2574 90.059 41.9177 98.5 52.5172 98.5H84.1544C94.2783 98.5 102.5 90.4476 102.5 80.4922L102.5 41.7524C102.5 41.6236 102.45 41.4997 102.361 41.4067L81.5563 19.6684Z" stroke="url(#paint1_linear_1104_48)" stroke-linecap="round" stroke-linejoin="round"/>
</g>
<g filter="url(#filter2_bd_1104_48)">
<mask id="path-5-inside-1_1104_48" fill="white">
<path fill-rule="evenodd" clip-rule="evenodd" d="M75.3019 65.8046H68.9566V72.0298C68.9566 73.5051 67.7462 74.6926 66.2425 74.6926C64.7387 74.6926 63.4916 73.5051 63.4916 72.0298V65.8046H57.183C55.6792 65.8046 54.4321 64.6171 54.4321 63.1418C54.4321 61.6305 55.6792 60.443 57.183 60.443H63.4916V54.2178C63.4916 52.7425 64.7387 51.555 66.2425 51.555C67.7462 51.555 68.9566 52.7425 68.9566 54.2178V60.443H75.3019C76.8057 60.443 78.0528 61.6305 78.0528 63.1418C78.0528 64.6171 76.8057 65.8046 75.3019 65.8046"/>
</mask>
<path fill-rule="evenodd" clip-rule="evenodd" d="M75.3019 65.8046H68.9566V72.0298C68.9566 73.5051 67.7462 74.6926 66.2425 74.6926C64.7387 74.6926 63.4916 73.5051 63.4916 72.0298V65.8046H57.183C55.6792 65.8046 54.4321 64.6171 54.4321 63.1418C54.4321 61.6305 55.6792 60.443 57.183 60.443H63.4916V54.2178C63.4916 52.7425 64.7387 51.555 66.2425 51.555C67.7462 51.555 68.9566 52.7425 68.9566 54.2178V60.443H75.3019C76.8057 60.443 78.0528 61.6305 78.0528 63.1418C78.0528 64.6171 76.8057 65.8046 75.3019 65.8046" fill="url(#paint2_linear_1104_48)"/>
<path d="M68.9566 65.8046V65.4046H68.5566V65.8046H68.9566ZM63.4916 65.8046H63.8916V65.4046H63.4916V65.8046ZM63.4916 60.443V60.843H63.8916V60.443H63.4916ZM68.9566 60.443H68.5566V60.843H68.9566V60.443ZM75.3019 65.4046H68.9566V66.2046H75.3019V65.4046ZM68.5566 65.8046V72.0298H69.3566V65.8046H68.5566ZM68.5566 72.0298C68.5566 73.2771 67.5326 74.2926 66.2425 74.2926V75.0926C67.9599 75.0926 69.3566 73.7332 69.3566 72.0298H68.5566ZM66.2425 74.2926C64.9452 74.2926 63.8916 73.2702 63.8916 72.0298H63.0916C63.0916 73.7401 64.5321 75.0926 66.2425 75.0926V74.2926ZM63.8916 72.0298V65.8046H63.0916V72.0298H63.8916ZM63.4916 65.4046H57.183V66.2046H63.4916V65.4046ZM57.183 65.4046C55.8858 65.4046 54.8321 64.3822 54.8321 63.1418H54.0321C54.0321 64.8521 55.4726 66.2046 57.183 66.2046V65.4046ZM54.8321 63.1418C54.8321 61.862 55.8893 60.843 57.183 60.843V60.043C55.469 60.043 54.0321 61.399 54.0321 63.1418H54.8321ZM57.183 60.843H63.4916V60.043H57.183V60.843ZM63.8916 60.443V54.2178H63.0916V60.443H63.8916ZM63.8916 54.2178C63.8916 52.9775 64.9452 51.955 66.2425 51.955V51.155C64.5321 51.155 63.0916 52.5075 63.0916 54.2178H63.8916ZM66.2425 51.955C67.5326 51.955 68.5566 52.9706 68.5566 54.2178H69.3566C69.3566 52.5144 67.9599 51.155 66.2425 51.155V51.955ZM68.5566 54.2178V60.443H69.3566V54.2178H68.5566ZM68.9566 60.843H75.3019V60.043H68.9566V60.843ZM75.3019 60.843C76.5956 60.843 77.6528 61.862 77.6528 63.1418H78.4528C78.4528 61.399 77.0159 60.043 75.3019 60.043V60.843ZM77.6528 63.1418C77.6528 64.3822 76.5991 65.4046 75.3019 65.4046V66.2046C77.0123 66.2046 78.4528 64.8521 78.4528 63.1418H77.6528Z" fill="url(#paint3_linear_1104_48)" mask="url(#path-5-inside-1_1104_48)"/>
</g>
<g filter="url(#filter3_bd_1104_48)">
<path d="M84.876 44.8654C87.6462 44.8927 91.4976 44.9044 94.7646 44.8927C96.4379 44.8888 97.2884 42.9274 96.1279 41.7459C91.9308 37.4645 84.4229 29.8024 80.1264 25.4196C78.9381 24.2069 76.8594 25.0413 76.8594 26.7219V37.0005C76.8594 41.3131 80.4802 44.8654 84.876 44.8654Z" fill="url(#paint4_linear_1104_48)"/>
<path d="M84.878 44.6654H84.876C80.587 44.6654 77.0594 41.1991 77.0594 37.0005V26.7219C77.0594 25.2257 78.917 24.4711 79.9836 25.5596L79.9836 25.5596C82.1346 27.7538 85.0922 30.7717 88.036 33.7755C90.9702 36.7695 93.8907 39.7495 95.9851 41.8859L95.9852 41.8861C97.0154 42.9349 96.2693 44.6892 94.7641 44.6927H94.7639C91.4977 44.7044 87.6472 44.6927 84.878 44.6654Z" stroke="url(#paint5_linear_1104_48)" stroke-width="0.4"/>
</g>
<g filter="url(#filter4_f_1104_48)">
<path d="M106.347 43.5052C107.777 42.764 109.455 42.8415 110.82 43.7174C112.185 44.5933 113 46.106 113 47.7635V73.2397C113 74.8972 112.185 76.4099 110.82 77.2824C110.074 77.7574 109.24 78 108.399 78C107.699 78 106.998 77.8349 106.343 77.4913L69 60.8051L106.347 43.5052Z" fill="#FC5D00"/>
</g>
<path d="M120.717 32.7938C122.928 31.6291 125.521 31.7509 127.631 33.1273C129.741 34.5038 131 36.8809 131 39.4855V79.5195C131 82.1241 129.741 84.5012 127.631 85.8724C126.478 86.6188 125.189 87 123.89 87C122.807 87 121.724 86.7406 120.712 86.2006L63 59.9794L120.717 32.7938Z" fill="url(#paint6_linear_1104_48)"/>
<g filter="url(#filter5_b_1104_48)">
<path d="M83.168 97H53.832C41.5648 97 33 88.5384 33 76.4247V41.5753C33 29.4564 41.5648 21 53.832 21H83.168C95.4352 21 104 29.4564 104 41.5753V76.4247C104 88.5384 95.4352 97 83.168 97Z" fill="#FFCBB9"/>
<path d="M53.832 97.5H83.168C89.4192 97.5 94.7579 95.3421 98.5356 91.6107C102.314 87.8789 104.5 82.6029 104.5 76.4247V41.5753C104.5 35.3945 102.314 30.1186 98.5355 26.3873C94.7578 22.6565 89.4191 20.5 83.168 20.5H53.832C47.5809 20.5 42.2422 22.6565 38.4645 26.3873C34.6863 30.1186 32.5 35.3945 32.5 41.5753V76.4247C32.5 82.6029 34.6863 87.8789 38.4644 91.6107C42.2421 95.3421 47.5808 97.5 53.832 97.5Z" stroke="url(#paint7_linear_1104_48)" stroke-linecap="round" stroke-linejoin="round"/>
</g>
<g filter="url(#filter6_bd_1104_48)">
<mask id="path-13-inside-2_1104_48" fill="white">
<path fill-rule="evenodd" clip-rule="evenodd" d="M47.4589 35V35.0398C45.7452 35.0398 44.3575 36.4314 44.3575 38.1411C44.3575 39.8508 45.7452 41.2424 47.4589 41.2424H59.3433C61.057 41.2424 62.4486 39.8508 62.4486 38.0973C62.4486 36.3916 61.057 35 59.3433 35H47.4589ZM78.6311 59.2149H47.4589C45.7452 59.2149 44.3575 57.8233 44.3575 56.1136C44.3575 54.4039 45.7452 53.0083 47.4589 53.0083H78.6311C80.3408 53.0083 81.7325 54.4039 81.7325 56.1136C81.7325 57.8233 80.3408 59.2149 78.6311 59.2149ZM78.6315 77.3852H47.4592C46.2664 77.5442 45.1133 76.9478 44.4771 75.9538C43.841 74.92 43.841 73.6079 44.4771 72.6139C45.1133 71.5801 46.2664 71.0235 47.4592 71.1428H78.6315C80.2179 71.3018 81.4147 72.6537 81.4147 74.2838C81.4147 75.8703 80.2179 77.2261 78.6315 77.3852Z"/>
</mask>
<path fill-rule="evenodd" clip-rule="evenodd" d="M47.4589 35V35.0398C45.7452 35.0398 44.3575 36.4314 44.3575 38.1411C44.3575 39.8508 45.7452 41.2424 47.4589 41.2424H59.3433C61.057 41.2424 62.4486 39.8508 62.4486 38.0973C62.4486 36.3916 61.057 35 59.3433 35H47.4589ZM78.6311 59.2149H47.4589C45.7452 59.2149 44.3575 57.8233 44.3575 56.1136C44.3575 54.4039 45.7452 53.0083 47.4589 53.0083H78.6311C80.3408 53.0083 81.7325 54.4039 81.7325 56.1136C81.7325 57.8233 80.3408 59.2149 78.6311 59.2149ZM78.6315 77.3852H47.4592C46.2664 77.5442 45.1133 76.9478 44.4771 75.9538C43.841 74.92 43.841 73.6079 44.4771 72.6139C45.1133 71.5801 46.2664 71.0235 47.4592 71.1428H78.6315C80.2179 71.3018 81.4147 72.6537 81.4147 74.2838C81.4147 75.8703 80.2179 77.2261 78.6315 77.3852Z" fill="url(#paint8_linear_1104_48)"/>
<path d="M47.4589 35.0398V35.4398H47.8589V35.0398H47.4589ZM47.4589 35V34.6H47.0589V35H47.4589ZM47.4592 77.3852V76.9852H47.4326L47.4063 76.9887L47.4592 77.3852ZM78.6315 77.3852V77.7852H78.6515L78.6714 77.7832L78.6315 77.3852ZM44.4771 75.9538L44.1364 76.1635L44.1402 76.1694L44.4771 75.9538ZM44.4771 72.6139L44.8141 72.8296L44.8178 72.8235L44.4771 72.6139ZM47.4592 71.1428L47.4194 71.5408L47.4392 71.5428H47.4592V71.1428ZM78.6315 71.1428L78.6714 70.7447L78.6515 70.7428H78.6315V71.1428ZM47.8589 35.0398V35H47.0589V35.0398H47.8589ZM44.7575 38.1411C44.7575 36.652 45.9664 35.4398 47.4589 35.4398V34.6398C45.5239 34.6398 43.9575 36.2108 43.9575 38.1411H44.7575ZM47.4589 40.8424C45.9664 40.8424 44.7575 39.6302 44.7575 38.1411H43.9575C43.9575 40.0714 45.5239 41.6424 47.4589 41.6424V40.8424ZM59.3433 40.8424H47.4589V41.6424H59.3433V40.8424ZM62.0486 38.0973C62.0486 39.6332 60.8327 40.8424 59.3433 40.8424V41.6424C61.2812 41.6424 62.8486 40.0684 62.8486 38.0973H62.0486ZM59.3433 35.4C60.8367 35.4 62.0486 36.6132 62.0486 38.0973H62.8486C62.8486 36.17 61.2772 34.6 59.3433 34.6V35.4ZM47.4589 35.4H59.3433V34.6H47.4589V35.4ZM47.4589 59.6149H78.6311V58.8149H47.4589V59.6149ZM43.9575 56.1136C43.9575 58.0438 45.5239 59.6149 47.4589 59.6149V58.8149C45.9664 58.8149 44.7575 57.6027 44.7575 56.1136H43.9575ZM47.4589 52.6083C45.5233 52.6083 43.9575 54.1839 43.9575 56.1136H44.7575C44.7575 54.6238 45.9671 53.4083 47.4589 53.4083V52.6083ZM78.6311 52.6083H47.4589V53.4083H78.6311V52.6083ZM82.1325 56.1136C82.1325 54.1836 80.5624 52.6083 78.6311 52.6083V53.4083C80.1193 53.4083 81.3325 54.6241 81.3325 56.1136H82.1325ZM78.6311 59.6149C80.5618 59.6149 82.1325 58.0442 82.1325 56.1136H81.3325C81.3325 57.6023 80.1199 58.8149 78.6311 58.8149V59.6149ZM47.4592 77.7852H78.6315V76.9852H47.4592V77.7852ZM44.1402 76.1694C44.8527 77.2827 46.152 77.963 47.512 77.7817L47.4063 76.9887C46.3807 77.1254 45.3739 76.6129 44.814 75.7382L44.1402 76.1694ZM44.1402 72.3983C43.4183 73.5262 43.4228 75.0037 44.1365 76.1634L44.8178 75.7441C44.2591 74.8363 44.2636 73.6896 44.814 72.8295L44.1402 72.3983ZM47.499 70.7447C46.1561 70.6105 44.8542 71.238 44.1365 72.4043L44.8178 72.8235C45.3724 71.9223 46.3766 71.4365 47.4194 71.5408L47.499 70.7447ZM78.6315 70.7428H47.4592V71.5428H78.6315V70.7428ZM81.8147 74.2838C81.8147 72.4558 80.4697 70.925 78.6714 70.7447L78.5916 71.5408C79.9661 71.6786 81.0147 72.8515 81.0147 74.2838H81.8147ZM78.6714 77.7832C80.4669 77.6032 81.8147 76.071 81.8147 74.2838H81.0147C81.0147 75.6695 79.9689 76.8491 78.5916 76.9872L78.6714 77.7832Z" fill="url(#paint9_linear_1104_48)" mask="url(#path-13-inside-2_1104_48)"/>
</g>
<defs>
<filter id="filter0_f_1104_48" x="2.755" y="2.30942" width="83.6849" height="84.6602" filterUnits="userSpaceOnUse" color-interpolation-filters="sRGB">
<feFlood flood-opacity="0" result="BackgroundImageFix"/>
<feBlend mode="normal" in="SourceGraphic" in2="BackgroundImageFix" result="shape"/>
<feGaussianBlur stdDeviation="9.5" result="effect1_foregroundBlur_1104_48"/>
</filter>
<filter id="filter1_b_1104_48" x="8.75745" y="-4.9859" width="118.243" height="127.986" filterUnits="userSpaceOnUse" color-interpolation-filters="sRGB">
<feFlood flood-opacity="0" result="BackgroundImageFix"/>
<feGaussianBlur in="BackgroundImageFix" stdDeviation="12"/>
<feComposite in2="SourceAlpha" operator="in" result="effect1_backgroundBlur_1104_48"/>
<feBlend mode="normal" in="SourceGraphic" in2="effect1_backgroundBlur_1104_48" result="shape"/>
</filter>
<filter id="filter2_bd_1104_48" x="39.4321" y="36.555" width="53.6206" height="53.1376" filterUnits="userSpaceOnUse" color-interpolation-filters="sRGB">
<feFlood flood-opacity="0" result="BackgroundImageFix"/>
<feGaussianBlur in="BackgroundImageFix" stdDeviation="7.5"/>
<feComposite in2="SourceAlpha" operator="in" result="effect1_backgroundBlur_1104_48"/>
<feColorMatrix in="SourceAlpha" type="matrix" values="0 0 0 0 0 0 0 0 0 0 0 0 0 0 0 0 0 0 127 0" result="hardAlpha"/>
<feOffset dx="5" dy="5"/>
<feGaussianBlur stdDeviation="5"/>
<feColorMatrix type="matrix" values="0 0 0 0 1 0 0 0 0 0.580392 0 0 0 0 0.247059 0 0 0 0.5 0"/>
<feBlend mode="normal" in2="effect1_backgroundBlur_1104_48" result="effect2_dropShadow_1104_48"/>
<feBlend mode="normal" in="SourceGraphic" in2="effect2_dropShadow_1104_48" result="shape"/>
</filter>
<filter id="filter3_bd_1104_48" x="61.8594" y="9.84464" width="49.8038" height="50.0526" filterUnits="userSpaceOnUse" color-interpolation-filters="sRGB">
<feFlood flood-opacity="0" result="BackgroundImageFix"/>
<feGaussianBlur in="BackgroundImageFix" stdDeviation="7.5"/>
<feComposite in2="SourceAlpha" operator="in" result="effect1_backgroundBlur_1104_48"/>
<feColorMatrix in="SourceAlpha" type="matrix" values="0 0 0 0 0 0 0 0 0 0 0 0 0 0 0 0 0 0 127 0" result="hardAlpha"/>
<feOffset dx="5" dy="5"/>
<feGaussianBlur stdDeviation="5"/>
<feColorMatrix type="matrix" values="0 0 0 0 1 0 0 0 0 0.580392 0 0 0 0 0.247059 0 0 0 0.5 0"/>
<feBlend mode="normal" in2="effect1_backgroundBlur_1104_48" result="effect2_dropShadow_1104_48"/>
<feBlend mode="normal" in="SourceGraphic" in2="effect2_dropShadow_1104_48" result="shape"/>
</filter>
<filter id="filter4_f_1104_48" x="60" y="34" width="62" height="53" filterUnits="userSpaceOnUse" color-interpolation-filters="sRGB">
<feFlood flood-opacity="0" result="BackgroundImageFix"/>
<feBlend mode="normal" in="SourceGraphic" in2="BackgroundImageFix" result="shape"/>
<feGaussianBlur stdDeviation="4.5" result="effect1_foregroundBlur_1104_48"/>
</filter>
<filter id="filter5_b_1104_48" x="8" y="-4" width="121" height="126" filterUnits="userSpaceOnUse" color-interpolation-filters="sRGB">
<feFlood flood-opacity="0" result="BackgroundImageFix"/>
<feGaussianBlur in="BackgroundImageFix" stdDeviation="12"/>
<feComposite in2="SourceAlpha" operator="in" result="effect1_backgroundBlur_1104_48"/>
<feBlend mode="normal" in="SourceGraphic" in2="effect1_backgroundBlur_1104_48" result="shape"/>
</filter>
<filter id="filter6_bd_1104_48" x="29" y="20" width="67.7324" height="72.4107" filterUnits="userSpaceOnUse" color-interpolation-filters="sRGB">
<feFlood flood-opacity="0" result="BackgroundImageFix"/>
<feGaussianBlur in="BackgroundImageFix" stdDeviation="7.5"/>
<feComposite in2="SourceAlpha" operator="in" result="effect1_backgroundBlur_1104_48"/>
<feColorMatrix in="SourceAlpha" type="matrix" values="0 0 0 0 0 0 0 0 0 0 0 0 0 0 0 0 0 0 127 0" result="hardAlpha"/>
<feOffset dx="5" dy="5"/>
<feGaussianBlur stdDeviation="5"/>
<feColorMatrix type="matrix" values="0 0 0 0 0.577356 0 0 0 0 0.359375 0 0 0 0 0.9375 0 0 0 0.5 0"/>
<feBlend mode="normal" in2="effect1_backgroundBlur_1104_48" result="effect2_dropShadow_1104_48"/>
<feBlend mode="normal" in="SourceGraphic" in2="effect2_dropShadow_1104_48" result="shape"/>
</filter>
<linearGradient id="paint0_linear_1104_48" x1="34.6981" y1="8.90211" x2="59.0694" y2="81.5001" gradientUnits="userSpaceOnUse">
<stop stop-color="#FFB37F"/>
<stop offset="1" stop-color="#FF7B0D"/>
</linearGradient>
<linearGradient id="paint1_linear_1104_48" x1="44.6206" y1="29.0996" x2="95.3456" y2="84.0747" gradientUnits="userSpaceOnUse">
<stop stop-color="white" stop-opacity="0.25"/>
<stop offset="1" stop-color="white" stop-opacity="0"/>
</linearGradient>
<linearGradient id="paint2_linear_1104_48" x1="76.3781" y1="55.7332" x2="50.0681" y2="56.6089" gradientUnits="userSpaceOnUse">
<stop stop-color="white"/>
<stop offset="1" stop-color="white" stop-opacity="0.2"/>
</linearGradient>
<linearGradient id="paint3_linear_1104_48" x1="58.1922" y1="54.2506" x2="72.8844" y2="72.8271" gradientUnits="userSpaceOnUse">
<stop stop-color="white" stop-opacity="0.25"/>
<stop offset="1" stop-color="white" stop-opacity="0"/>
</linearGradient>
<linearGradient id="paint4_linear_1104_48" x1="95.2591" y1="28.4657" x2="73.199" y2="29.1761" gradientUnits="userSpaceOnUse">
<stop stop-color="white"/>
<stop offset="1" stop-color="white" stop-opacity="0.2"/>
</linearGradient>
<linearGradient id="paint5_linear_1104_48" x1="80.0118" y1="27.1808" x2="92.8359" y2="42.8667" gradientUnits="userSpaceOnUse">
<stop stop-color="white" stop-opacity="0.25"/>
<stop offset="1" stop-color="white" stop-opacity="0"/>
</linearGradient>
<linearGradient id="paint6_linear_1104_48" x1="100.94" y1="32" x2="100.94" y2="87" gradientUnits="userSpaceOnUse">
<stop stop-color="#FFB37F"/>
<stop offset="1" stop-color="#FF7B0D"/>
</linearGradient>
<linearGradient id="paint7_linear_1104_48" x1="32.7929" y1="20.4832" x2="99.5665" y2="94.9573" gradientUnits="userSpaceOnUse">
<stop stop-color="white" stop-opacity="0.4"/>
<stop offset="1" stop-color="white" stop-opacity="0"/>
</linearGradient>
<linearGradient id="paint8_linear_1104_48" x1="79.0573" y1="42.6585" x2="37.0176" y2="43.878" gradientUnits="userSpaceOnUse">
<stop stop-color="white"/>
<stop offset="1" stop-color="white" stop-opacity="0.2"/>
</linearGradient>
<linearGradient id="paint9_linear_1104_48" x1="50.0064" y1="39.9409" x2="77.5515" y2="70.293" gradientUnits="userSpaceOnUse">
<stop stop-color="white" stop-opacity="0.25"/>
<stop offset="1" stop-color="white" stop-opacity="0"/>
</linearGradient>
</defs>
</svg>
